<svg width="100%" height="100%" viewBox="0 0 343 341" fill="none" xmlns="http://www.w3.org/2000/svg">
    <path d="M171.56 0C76.7062 0 0 76.2589 0 170.56C0 264.861 76.7062 341 171.44 341C266.173 341 342.879 264.741 342.879 170.56C342.879 76.3792 266.052 0 171.56 0ZM23.5926 104.285C40.2889 66.3958 70.5358 36.8063 108.889 20.6885C148.452 4.08959 192.007 3.60847 232.054 19.2451C312.995 50.9996 354.494 141.933 325.699 223.123L23.5926 104.285Z" fill="url(#paint0_linear)"></path>
    <path d="M23.5926 104.285C40.2889 66.3958 70.5358 36.8063 108.889 20.6885C148.452 4.08959 192.007 3.60846 232.054 19.2451C312.995 50.9996 354.494 141.933 325.699 223.123L23.5926 104.285Z" fill="white"></path>
    <path d="M95.3383 206.043C92.6765 204.841 90.3778 201.593 90.3778 198.706V182.829L139.862 203.878L140.104 263.538C140.104 277.25 140.104 277.972 150.146 282.302L179.909 294.812V316.102L130.425 295.052C124.98 292.647 120.383 286.031 120.383 280.137V258.847L110.341 254.637C104.896 252.232 100.299 245.616 100.299 239.722V229.017L120.02 237.317V216.027L95.3383 206.043Z" fill="white"></path>
    <path d="M179.667 273.762L169.625 269.552C159.583 264.861 159.583 265.583 159.583 254.637V182.829L169.625 187.039C175.069 189.444 179.667 196.06 179.667 201.954V273.762Z" fill="white"></path>
    <path d="M220.319 150.834V141.572L239.798 122.447C242.217 120.282 243.79 118.237 244.758 116.313C245.968 114.388 246.452 112.344 246.452 110.178C246.452 108.013 245.726 106.45 244.516 105.247C243.306 104.044 240.886 103.322 237.862 103.322H221.407V94.3012C224.069 93.8201 226.61 93.339 229.756 93.0984C232.901 92.6173 236.168 92.3767 240.04 92.3767C244.516 92.3767 248.146 93.0984 250.807 94.3012C253.469 95.504 255.284 97.4286 256.252 99.7139C257.462 102.12 257.946 104.886 257.946 108.254C257.946 112.223 257.22 115.591 255.526 118.478C253.832 121.365 251.775 124.372 248.63 127.499L235.805 140.49H260.123V150.954H220.319V150.834ZM265.81 150.834L280.086 129.303L265.81 108.976H277.425L286.741 122.207L295.089 108.976H306.946L292.79 130.747L307.067 151.074H295.21L285.894 137.843L277.546 151.074H265.931V150.834H265.81V150.834Z" fill="#460782"></path>
    <path fill-rule="evenodd" clip-rule="evenodd" d="M202.17 68.8014C200.84 57.2543 190.677 53.5256 177.852 52.6836L177.61 36.5658L167.689 36.6861L167.931 52.3228C165.39 52.3228 162.728 52.443 160.067 52.5633L159.825 36.8064L149.904 36.9266L150.146 53.0445C147.968 53.1647 145.911 53.1647 143.854 53.285L130.183 53.5256L130.425 63.9901C130.425 63.9901 137.684 63.7496 137.563 63.8699C141.556 63.7496 142.886 66.0349 143.37 68.0797L143.733 86.3626C143.975 86.3626 144.338 86.3626 144.822 86.3626H143.733L144.217 111.983C144.096 113.186 143.37 115.23 140.588 115.23C140.709 115.351 133.449 115.351 133.449 115.351L131.635 127.138L144.459 126.898C145.911 126.898 147.363 126.898 148.815 126.898C149.783 126.898 150.63 126.898 151.598 126.898L151.84 143.136L161.76 143.016L161.519 126.898C164.18 126.898 166.842 126.898 169.383 126.777L169.625 142.775L179.546 142.655L179.304 126.417C195.879 125.214 207.494 120.884 208.704 105.367C209.672 92.8579 203.622 87.4452 194.185 85.4004C199.63 82.3933 203.138 77.2212 202.17 68.8014ZM163.333 114.99C171.44 114.99 189.104 114.87 188.983 103.804C188.741 92.3767 171.802 93.0984 163.454 93.4593C162.486 93.4593 161.76 93.5796 161.035 93.5796L161.398 115.11C162.002 114.99 162.607 114.99 163.333 114.99ZM183.78 73.4924C183.901 83.5961 169.262 83.5961 162.486 83.5961C161.881 83.5961 161.277 83.5961 160.914 83.5961L160.551 63.9901C161.156 63.9901 161.76 63.9901 162.607 63.8699C169.504 63.7496 183.659 63.1482 183.78 73.4924Z" fill="#460782"></path>
    <defs>
      <linearGradient id="paint0_linear" x1="171.439" y1="93.6977" x2="171.439" y2="340.91" gradientUnits="userSpaceOnUse">
        <stop stop-color="#3A056C"></stop>
        <stop offset="1" stop-color="#4D078D"></stop>
      </linearGradient>
    </defs>
  </svg>