<svg width="100%" height="100%" viewBox="0 0 106 106" fill="none" xmlns="http://www.w3.org/2000/svg">
    <path d="M53.0353 1.5C24.5433 1.5 1.5 24.5344 1.5 53.0176C1.5 81.5016 24.544 104.5 53 104.5C81.4567 104.5 104.5 81.4656 104.5 53.0176C104.5 24.571 81.4228 1.5 53.0353 1.5ZM70.1292 10.0397C92.4956 18.8636 104.199 43.7903 97.0681 66.4546L11.9033 32.7689C16.7299 22.6898 24.9867 14.8241 35.3411 10.4487C46.5164 5.73444 58.8127 5.59691 70.1292 10.0397Z" fill="url(#paint0_linear)" stroke="white" stroke-width="3"></path>
    <path d="M9.88086 33.582C14.7503 22.4708 23.5718 13.7936 34.7574 9.06696C46.2958 4.19924 58.9987 4.05814 70.6783 8.64368C94.2845 17.9559 106.388 44.6225 97.9896 68.432L9.88086 33.582Z" fill="white"></path>
    <path d="M42.5562 29.4198L52.7538 35.4516L62.9514 29.4198L52.7538 12.5239L42.5562 29.4198Z" fill="#460782"></path>
    <path d="M42.5562 32.7357L52.7538 47.0919L62.9514 32.7357L52.7538 38.7674L42.5562 32.7357Z" fill="#460782"></path>
    <path d="M30.8061 63.4233C30.0298 63.0706 29.3594 62.1182 29.3594 61.2716V56.6155L43.7913 62.7884L43.8618 80.284C43.8618 84.3051 43.8618 84.5168 46.7906 85.7866L55.4709 89.455V95.6984L41.039 89.5256C39.4511 88.8201 38.1103 86.8801 38.1103 85.1517V78.9083L35.1815 77.6737C33.5937 76.9683 32.2528 75.0282 32.2528 73.2998V70.1605L38.0044 72.5944V66.351L30.8061 63.4233Z" fill="white"></path>
    <path d="M55.4004 83.2822L52.4717 82.0476C49.543 80.672 49.543 80.8836 49.543 77.6737V56.6155L52.4717 57.8501C54.0596 58.5556 55.4004 60.4956 55.4004 62.224V83.2822Z" fill="white"></path>
    <path d="M67.2563 47.2329V44.5168L72.9374 38.9084C73.6431 38.2734 74.1018 37.6738 74.3841 37.1094C74.7369 36.5451 74.8781 35.9454 74.8781 35.3105C74.8781 34.6756 74.6664 34.217 74.3135 33.8643C73.9607 33.5115 73.2549 33.2999 72.3728 33.2999H67.5739V30.6544C68.3502 30.5133 69.0912 30.3722 70.0086 30.3017C70.9261 30.1606 71.8788 30.09 73.0079 30.09C74.3135 30.09 75.3721 30.3017 76.1484 30.6544C76.9247 31.0071 77.4539 31.5715 77.7362 32.2417C78.0891 32.9472 78.2302 33.7585 78.2302 34.7461C78.2302 35.9101 78.0185 36.8978 77.5245 37.7443C77.0305 38.5909 76.4307 39.4727 75.5132 40.3899L71.7729 44.1994H78.8654V47.2682H67.2563V47.2329ZM80.5238 47.2329L84.6875 40.919L80.5238 34.9578H83.9112L86.6283 38.8378L89.063 34.9578H92.521L88.3925 41.3422L92.5563 47.3034H89.0983L86.3813 43.4234L83.9465 47.3034H80.5591V47.2329H80.5238Z" fill="#460782"></path>
    <defs>
      <linearGradient id="paint0_linear" x1="53" y1="30.4773" x2="53" y2="102.974" gradientUnits="userSpaceOnUse">
        <stop stop-color="#3A056C"></stop>
        <stop offset="1" stop-color="#4D078D"></stop>
      </linearGradient>
    </defs>
  </svg>