<svg width="100%" height="100%" viewBox="0 0 100 100" fill="none" xmlns="http://www.w3.org/2000/svg">
    <path fill-rule="evenodd" clip-rule="evenodd" d="M0 50C0 22.3733 22.3733 0 50 0C77.6267 0 100 22.3733 100 50C100 77.6267 77.6267 100 50 100C22.3733 100 0 77.6267 0 50Z" fill="url(#paint0_linear)"></path>
    <path fill-rule="evenodd" clip-rule="evenodd" d="M19.0933 47.6801C19.0933 47.6801 19.0933 55.4401 49.9999 55.4401C80.9066 55.4401 80.9066 47.6801 80.9066 47.6801C80.9066 55.4401 73.5999 71.7601 69.0933 74.5601C64.5866 77.3334 66.2933 65.2534 61.7866 65.5467C57.2799 65.8401 54.4799 83.6001 49.9733 83.6001C45.4666 83.6001 42.6666 65.2801 38.1599 65.5734C33.6533 65.8667 35.3866 77.3868 30.8533 74.5868C26.3999 71.7868 19.0933 55.4668 19.0933 47.6801Z" fill="white"></path>
    <path fill-rule="evenodd" clip-rule="evenodd" d="M26.3999 47.6799C26.3999 45.1732 36.9599 43.1199 49.9999 43.1199C63.0399 43.1199 73.5999 45.1732 73.5999 47.6799C73.5999 50.1866 61.7866 52.2399 49.9999 52.2399C38.1866 52.2399 26.3999 50.2132 26.3999 47.6799Z" fill="white"></path>
    <path fill-rule="evenodd" clip-rule="evenodd" d="M61.8135 25.8934C61.8135 22.6134 64.4535 19.9734 67.7335 19.9734C71.0135 19.9734 73.6535 22.6134 73.6535 25.8934C73.6535 29.1734 71.0135 31.8134 67.7335 31.8134C64.4535 31.8134 61.8135 29.1468 61.8135 25.8934Z" fill="white"></path>
    <defs>
      <linearGradient id="paint0_linear" x1="5.96046e-06" y1="100" x2="100" y2="-5.96046e-06" gradientUnits="userSpaceOnUse">
        <stop offset="0.1408" stop-color="#FF59DC"></stop>
        <stop offset="0.8592" stop-color="#35FFE7"></stop>
        <stop offset="1" stop-color="#FFFD00" stop-opacity="0.8967"></stop>
      </linearGradient>
    </defs>
  </svg>